%TF.GenerationSoftware,KiCad,Pcbnew,10.0.0*%
%TF.CreationDate,2026-04-08T20:09:22-04:00*%
%TF.ProjectId,new,6e65772e-6b69-4636-9164-5f7063625858,rev?*%
%TF.SameCoordinates,Original*%
%TF.FileFunction,Drillmap*%
%TF.FilePolarity,Positive*%
%FSLAX45Y45*%
G04 Gerber Fmt 4.5, Leading zero omitted, Abs format (unit mm)*
G04 Created by KiCad (PCBNEW 10.0.0) date 2026-04-08 20:09:22*
%MOMM*%
%LPD*%
G01*
G04 APERTURE LIST*
%ADD10C,0.050000*%
%ADD11C,0.200000*%
%ADD12C,0.100000*%
G04 APERTURE END LIST*
D10*
X14811424Y-7996136D02*
X14865747Y-11670237D01*
X9436359Y-11750513D01*
X9470945Y-7966954D01*
X14811424Y-7996136D01*
D11*
D12*
X11160000Y-10760000D02*
X11240000Y-10840000D01*
X11240000Y-10760000D02*
X11160000Y-10840000D01*
X11922000Y-10760000D02*
X12002000Y-10840000D01*
X12002000Y-10760000D02*
X11922000Y-10840000D01*
X12160000Y-10760000D02*
X12240000Y-10840000D01*
X12240000Y-10760000D02*
X12160000Y-10840000D01*
X12922000Y-10760000D02*
X13002000Y-10840000D01*
X13002000Y-10760000D02*
X12922000Y-10840000D01*
X10495000Y-10073500D02*
G75*
G02*
X10405000Y-10073500I-45000J0D01*
G01*
X10405000Y-10073500D02*
G75*
G02*
X10495000Y-10073500I45000J0D01*
G01*
X10495000Y-10327500D02*
G75*
G02*
X10405000Y-10327500I-45000J0D01*
G01*
X10405000Y-10327500D02*
G75*
G02*
X10495000Y-10327500I45000J0D01*
G01*
X13595000Y-10046000D02*
G75*
G02*
X13505000Y-10046000I-45000J0D01*
G01*
X13505000Y-10046000D02*
G75*
G02*
X13595000Y-10046000I45000J0D01*
G01*
X13595000Y-10300000D02*
G75*
G02*
X13505000Y-10300000I-45000J0D01*
G01*
X13505000Y-10300000D02*
G75*
G02*
X13595000Y-10300000I45000J0D01*
G01*
D11*
X9694636Y-12064497D02*
X9694636Y-11864497D01*
X9694636Y-11864497D02*
X9742255Y-11864497D01*
X9742255Y-11864497D02*
X9770826Y-11874020D01*
X9770826Y-11874020D02*
X9789874Y-11893068D01*
X9789874Y-11893068D02*
X9799398Y-11912116D01*
X9799398Y-11912116D02*
X9808921Y-11950211D01*
X9808921Y-11950211D02*
X9808921Y-11978782D01*
X9808921Y-11978782D02*
X9799398Y-12016878D01*
X9799398Y-12016878D02*
X9789874Y-12035925D01*
X9789874Y-12035925D02*
X9770826Y-12054973D01*
X9770826Y-12054973D02*
X9742255Y-12064497D01*
X9742255Y-12064497D02*
X9694636Y-12064497D01*
X9894636Y-12064497D02*
X9894636Y-11931163D01*
X9894636Y-11969259D02*
X9904159Y-11950211D01*
X9904159Y-11950211D02*
X9913683Y-11940687D01*
X9913683Y-11940687D02*
X9932731Y-11931163D01*
X9932731Y-11931163D02*
X9951779Y-11931163D01*
X10018445Y-12064497D02*
X10018445Y-11931163D01*
X10018445Y-11864497D02*
X10008921Y-11874020D01*
X10008921Y-11874020D02*
X10018445Y-11883544D01*
X10018445Y-11883544D02*
X10027969Y-11874020D01*
X10027969Y-11874020D02*
X10018445Y-11864497D01*
X10018445Y-11864497D02*
X10018445Y-11883544D01*
X10142255Y-12064497D02*
X10123207Y-12054973D01*
X10123207Y-12054973D02*
X10113683Y-12035925D01*
X10113683Y-12035925D02*
X10113683Y-11864497D01*
X10247017Y-12064497D02*
X10227969Y-12054973D01*
X10227969Y-12054973D02*
X10218445Y-12035925D01*
X10218445Y-12035925D02*
X10218445Y-11864497D01*
X10475588Y-12064497D02*
X10475588Y-11864497D01*
X10475588Y-11864497D02*
X10542255Y-12007354D01*
X10542255Y-12007354D02*
X10608921Y-11864497D01*
X10608921Y-11864497D02*
X10608921Y-12064497D01*
X10789874Y-12064497D02*
X10789874Y-11959735D01*
X10789874Y-11959735D02*
X10780350Y-11940687D01*
X10780350Y-11940687D02*
X10761302Y-11931163D01*
X10761302Y-11931163D02*
X10723207Y-11931163D01*
X10723207Y-11931163D02*
X10704159Y-11940687D01*
X10789874Y-12054973D02*
X10770826Y-12064497D01*
X10770826Y-12064497D02*
X10723207Y-12064497D01*
X10723207Y-12064497D02*
X10704159Y-12054973D01*
X10704159Y-12054973D02*
X10694636Y-12035925D01*
X10694636Y-12035925D02*
X10694636Y-12016878D01*
X10694636Y-12016878D02*
X10704159Y-11997830D01*
X10704159Y-11997830D02*
X10723207Y-11988306D01*
X10723207Y-11988306D02*
X10770826Y-11988306D01*
X10770826Y-11988306D02*
X10789874Y-11978782D01*
X10885112Y-11931163D02*
X10885112Y-12131163D01*
X10885112Y-11940687D02*
X10904159Y-11931163D01*
X10904159Y-11931163D02*
X10942255Y-11931163D01*
X10942255Y-11931163D02*
X10961302Y-11940687D01*
X10961302Y-11940687D02*
X10970826Y-11950211D01*
X10970826Y-11950211D02*
X10980350Y-11969259D01*
X10980350Y-11969259D02*
X10980350Y-12026401D01*
X10980350Y-12026401D02*
X10970826Y-12045449D01*
X10970826Y-12045449D02*
X10961302Y-12054973D01*
X10961302Y-12054973D02*
X10942255Y-12064497D01*
X10942255Y-12064497D02*
X10904159Y-12064497D01*
X10904159Y-12064497D02*
X10885112Y-12054973D01*
X11066064Y-12045449D02*
X11075588Y-12054973D01*
X11075588Y-12054973D02*
X11066064Y-12064497D01*
X11066064Y-12064497D02*
X11056540Y-12054973D01*
X11056540Y-12054973D02*
X11066064Y-12045449D01*
X11066064Y-12045449D02*
X11066064Y-12064497D01*
X11066064Y-11940687D02*
X11075588Y-11950211D01*
X11075588Y-11950211D02*
X11066064Y-11959735D01*
X11066064Y-11959735D02*
X11056540Y-11950211D01*
X11056540Y-11950211D02*
X11066064Y-11940687D01*
X11066064Y-11940687D02*
X11066064Y-11959735D01*
D12*
X9353859Y-12353013D02*
X9433859Y-12433013D01*
X9433859Y-12353013D02*
X9353859Y-12433013D01*
D11*
X9732731Y-12284497D02*
X9751779Y-12284497D01*
X9751779Y-12284497D02*
X9770826Y-12294020D01*
X9770826Y-12294020D02*
X9780350Y-12303544D01*
X9780350Y-12303544D02*
X9789874Y-12322592D01*
X9789874Y-12322592D02*
X9799398Y-12360687D01*
X9799398Y-12360687D02*
X9799398Y-12408306D01*
X9799398Y-12408306D02*
X9789874Y-12446401D01*
X9789874Y-12446401D02*
X9780350Y-12465449D01*
X9780350Y-12465449D02*
X9770826Y-12474973D01*
X9770826Y-12474973D02*
X9751779Y-12484497D01*
X9751779Y-12484497D02*
X9732731Y-12484497D01*
X9732731Y-12484497D02*
X9713683Y-12474973D01*
X9713683Y-12474973D02*
X9704159Y-12465449D01*
X9704159Y-12465449D02*
X9694636Y-12446401D01*
X9694636Y-12446401D02*
X9685112Y-12408306D01*
X9685112Y-12408306D02*
X9685112Y-12360687D01*
X9685112Y-12360687D02*
X9694636Y-12322592D01*
X9694636Y-12322592D02*
X9704159Y-12303544D01*
X9704159Y-12303544D02*
X9713683Y-12294020D01*
X9713683Y-12294020D02*
X9732731Y-12284497D01*
X9885112Y-12465449D02*
X9894636Y-12474973D01*
X9894636Y-12474973D02*
X9885112Y-12484497D01*
X9885112Y-12484497D02*
X9875588Y-12474973D01*
X9875588Y-12474973D02*
X9885112Y-12465449D01*
X9885112Y-12465449D02*
X9885112Y-12484497D01*
X10008921Y-12370211D02*
X9989874Y-12360687D01*
X9989874Y-12360687D02*
X9980350Y-12351163D01*
X9980350Y-12351163D02*
X9970826Y-12332116D01*
X9970826Y-12332116D02*
X9970826Y-12322592D01*
X9970826Y-12322592D02*
X9980350Y-12303544D01*
X9980350Y-12303544D02*
X9989874Y-12294020D01*
X9989874Y-12294020D02*
X10008921Y-12284497D01*
X10008921Y-12284497D02*
X10047017Y-12284497D01*
X10047017Y-12284497D02*
X10066064Y-12294020D01*
X10066064Y-12294020D02*
X10075588Y-12303544D01*
X10075588Y-12303544D02*
X10085112Y-12322592D01*
X10085112Y-12322592D02*
X10085112Y-12332116D01*
X10085112Y-12332116D02*
X10075588Y-12351163D01*
X10075588Y-12351163D02*
X10066064Y-12360687D01*
X10066064Y-12360687D02*
X10047017Y-12370211D01*
X10047017Y-12370211D02*
X10008921Y-12370211D01*
X10008921Y-12370211D02*
X9989874Y-12379735D01*
X9989874Y-12379735D02*
X9980350Y-12389259D01*
X9980350Y-12389259D02*
X9970826Y-12408306D01*
X9970826Y-12408306D02*
X9970826Y-12446401D01*
X9970826Y-12446401D02*
X9980350Y-12465449D01*
X9980350Y-12465449D02*
X9989874Y-12474973D01*
X9989874Y-12474973D02*
X10008921Y-12484497D01*
X10008921Y-12484497D02*
X10047017Y-12484497D01*
X10047017Y-12484497D02*
X10066064Y-12474973D01*
X10066064Y-12474973D02*
X10075588Y-12465449D01*
X10075588Y-12465449D02*
X10085112Y-12446401D01*
X10085112Y-12446401D02*
X10085112Y-12408306D01*
X10085112Y-12408306D02*
X10075588Y-12389259D01*
X10075588Y-12389259D02*
X10066064Y-12379735D01*
X10066064Y-12379735D02*
X10047017Y-12370211D01*
X10208921Y-12284497D02*
X10227969Y-12284497D01*
X10227969Y-12284497D02*
X10247017Y-12294020D01*
X10247017Y-12294020D02*
X10256540Y-12303544D01*
X10256540Y-12303544D02*
X10266064Y-12322592D01*
X10266064Y-12322592D02*
X10275588Y-12360687D01*
X10275588Y-12360687D02*
X10275588Y-12408306D01*
X10275588Y-12408306D02*
X10266064Y-12446401D01*
X10266064Y-12446401D02*
X10256540Y-12465449D01*
X10256540Y-12465449D02*
X10247017Y-12474973D01*
X10247017Y-12474973D02*
X10227969Y-12484497D01*
X10227969Y-12484497D02*
X10208921Y-12484497D01*
X10208921Y-12484497D02*
X10189874Y-12474973D01*
X10189874Y-12474973D02*
X10180350Y-12465449D01*
X10180350Y-12465449D02*
X10170826Y-12446401D01*
X10170826Y-12446401D02*
X10161302Y-12408306D01*
X10161302Y-12408306D02*
X10161302Y-12360687D01*
X10161302Y-12360687D02*
X10170826Y-12322592D01*
X10170826Y-12322592D02*
X10180350Y-12303544D01*
X10180350Y-12303544D02*
X10189874Y-12294020D01*
X10189874Y-12294020D02*
X10208921Y-12284497D01*
X10399398Y-12284497D02*
X10418445Y-12284497D01*
X10418445Y-12284497D02*
X10437493Y-12294020D01*
X10437493Y-12294020D02*
X10447017Y-12303544D01*
X10447017Y-12303544D02*
X10456540Y-12322592D01*
X10456540Y-12322592D02*
X10466064Y-12360687D01*
X10466064Y-12360687D02*
X10466064Y-12408306D01*
X10466064Y-12408306D02*
X10456540Y-12446401D01*
X10456540Y-12446401D02*
X10447017Y-12465449D01*
X10447017Y-12465449D02*
X10437493Y-12474973D01*
X10437493Y-12474973D02*
X10418445Y-12484497D01*
X10418445Y-12484497D02*
X10399398Y-12484497D01*
X10399398Y-12484497D02*
X10380350Y-12474973D01*
X10380350Y-12474973D02*
X10370826Y-12465449D01*
X10370826Y-12465449D02*
X10361302Y-12446401D01*
X10361302Y-12446401D02*
X10351779Y-12408306D01*
X10351779Y-12408306D02*
X10351779Y-12360687D01*
X10351779Y-12360687D02*
X10361302Y-12322592D01*
X10361302Y-12322592D02*
X10370826Y-12303544D01*
X10370826Y-12303544D02*
X10380350Y-12294020D01*
X10380350Y-12294020D02*
X10399398Y-12284497D01*
X10551779Y-12484497D02*
X10551779Y-12351163D01*
X10551779Y-12370211D02*
X10561302Y-12360687D01*
X10561302Y-12360687D02*
X10580350Y-12351163D01*
X10580350Y-12351163D02*
X10608921Y-12351163D01*
X10608921Y-12351163D02*
X10627969Y-12360687D01*
X10627969Y-12360687D02*
X10637493Y-12379735D01*
X10637493Y-12379735D02*
X10637493Y-12484497D01*
X10637493Y-12379735D02*
X10647017Y-12360687D01*
X10647017Y-12360687D02*
X10666064Y-12351163D01*
X10666064Y-12351163D02*
X10694636Y-12351163D01*
X10694636Y-12351163D02*
X10713683Y-12360687D01*
X10713683Y-12360687D02*
X10723207Y-12379735D01*
X10723207Y-12379735D02*
X10723207Y-12484497D01*
X10818445Y-12484497D02*
X10818445Y-12351163D01*
X10818445Y-12370211D02*
X10827969Y-12360687D01*
X10827969Y-12360687D02*
X10847017Y-12351163D01*
X10847017Y-12351163D02*
X10875588Y-12351163D01*
X10875588Y-12351163D02*
X10894636Y-12360687D01*
X10894636Y-12360687D02*
X10904160Y-12379735D01*
X10904160Y-12379735D02*
X10904160Y-12484497D01*
X10904160Y-12379735D02*
X10913683Y-12360687D01*
X10913683Y-12360687D02*
X10932731Y-12351163D01*
X10932731Y-12351163D02*
X10961302Y-12351163D01*
X10961302Y-12351163D02*
X10980350Y-12360687D01*
X10980350Y-12360687D02*
X10989874Y-12379735D01*
X10989874Y-12379735D02*
X10989874Y-12484497D01*
X11380350Y-12274973D02*
X11208921Y-12532116D01*
X11637493Y-12284497D02*
X11656541Y-12284497D01*
X11656541Y-12284497D02*
X11675588Y-12294020D01*
X11675588Y-12294020D02*
X11685112Y-12303544D01*
X11685112Y-12303544D02*
X11694636Y-12322592D01*
X11694636Y-12322592D02*
X11704160Y-12360687D01*
X11704160Y-12360687D02*
X11704160Y-12408306D01*
X11704160Y-12408306D02*
X11694636Y-12446401D01*
X11694636Y-12446401D02*
X11685112Y-12465449D01*
X11685112Y-12465449D02*
X11675588Y-12474973D01*
X11675588Y-12474973D02*
X11656541Y-12484497D01*
X11656541Y-12484497D02*
X11637493Y-12484497D01*
X11637493Y-12484497D02*
X11618445Y-12474973D01*
X11618445Y-12474973D02*
X11608921Y-12465449D01*
X11608921Y-12465449D02*
X11599398Y-12446401D01*
X11599398Y-12446401D02*
X11589874Y-12408306D01*
X11589874Y-12408306D02*
X11589874Y-12360687D01*
X11589874Y-12360687D02*
X11599398Y-12322592D01*
X11599398Y-12322592D02*
X11608921Y-12303544D01*
X11608921Y-12303544D02*
X11618445Y-12294020D01*
X11618445Y-12294020D02*
X11637493Y-12284497D01*
X11789874Y-12465449D02*
X11799398Y-12474973D01*
X11799398Y-12474973D02*
X11789874Y-12484497D01*
X11789874Y-12484497D02*
X11780350Y-12474973D01*
X11780350Y-12474973D02*
X11789874Y-12465449D01*
X11789874Y-12465449D02*
X11789874Y-12484497D01*
X11923207Y-12284497D02*
X11942255Y-12284497D01*
X11942255Y-12284497D02*
X11961302Y-12294020D01*
X11961302Y-12294020D02*
X11970826Y-12303544D01*
X11970826Y-12303544D02*
X11980350Y-12322592D01*
X11980350Y-12322592D02*
X11989874Y-12360687D01*
X11989874Y-12360687D02*
X11989874Y-12408306D01*
X11989874Y-12408306D02*
X11980350Y-12446401D01*
X11980350Y-12446401D02*
X11970826Y-12465449D01*
X11970826Y-12465449D02*
X11961302Y-12474973D01*
X11961302Y-12474973D02*
X11942255Y-12484497D01*
X11942255Y-12484497D02*
X11923207Y-12484497D01*
X11923207Y-12484497D02*
X11904160Y-12474973D01*
X11904160Y-12474973D02*
X11894636Y-12465449D01*
X11894636Y-12465449D02*
X11885112Y-12446401D01*
X11885112Y-12446401D02*
X11875588Y-12408306D01*
X11875588Y-12408306D02*
X11875588Y-12360687D01*
X11875588Y-12360687D02*
X11885112Y-12322592D01*
X11885112Y-12322592D02*
X11894636Y-12303544D01*
X11894636Y-12303544D02*
X11904160Y-12294020D01*
X11904160Y-12294020D02*
X11923207Y-12284497D01*
X12056541Y-12284497D02*
X12180350Y-12284497D01*
X12180350Y-12284497D02*
X12113683Y-12360687D01*
X12113683Y-12360687D02*
X12142255Y-12360687D01*
X12142255Y-12360687D02*
X12161302Y-12370211D01*
X12161302Y-12370211D02*
X12170826Y-12379735D01*
X12170826Y-12379735D02*
X12180350Y-12398782D01*
X12180350Y-12398782D02*
X12180350Y-12446401D01*
X12180350Y-12446401D02*
X12170826Y-12465449D01*
X12170826Y-12465449D02*
X12161302Y-12474973D01*
X12161302Y-12474973D02*
X12142255Y-12484497D01*
X12142255Y-12484497D02*
X12085112Y-12484497D01*
X12085112Y-12484497D02*
X12066064Y-12474973D01*
X12066064Y-12474973D02*
X12056541Y-12465449D01*
X12370826Y-12484497D02*
X12256541Y-12484497D01*
X12313683Y-12484497D02*
X12313683Y-12284497D01*
X12313683Y-12284497D02*
X12294636Y-12313068D01*
X12294636Y-12313068D02*
X12275588Y-12332116D01*
X12275588Y-12332116D02*
X12256541Y-12341639D01*
X12551779Y-12284497D02*
X12456541Y-12284497D01*
X12456541Y-12284497D02*
X12447017Y-12379735D01*
X12447017Y-12379735D02*
X12456541Y-12370211D01*
X12456541Y-12370211D02*
X12475588Y-12360687D01*
X12475588Y-12360687D02*
X12523207Y-12360687D01*
X12523207Y-12360687D02*
X12542255Y-12370211D01*
X12542255Y-12370211D02*
X12551779Y-12379735D01*
X12551779Y-12379735D02*
X12561302Y-12398782D01*
X12561302Y-12398782D02*
X12561302Y-12446401D01*
X12561302Y-12446401D02*
X12551779Y-12465449D01*
X12551779Y-12465449D02*
X12542255Y-12474973D01*
X12542255Y-12474973D02*
X12523207Y-12484497D01*
X12523207Y-12484497D02*
X12475588Y-12484497D01*
X12475588Y-12484497D02*
X12456541Y-12474973D01*
X12456541Y-12474973D02*
X12447017Y-12465449D01*
X12637493Y-12284497D02*
X12637493Y-12322592D01*
X12713683Y-12284497D02*
X12713683Y-12322592D01*
X13008922Y-12560687D02*
X12999398Y-12551163D01*
X12999398Y-12551163D02*
X12980350Y-12522592D01*
X12980350Y-12522592D02*
X12970826Y-12503544D01*
X12970826Y-12503544D02*
X12961303Y-12474973D01*
X12961303Y-12474973D02*
X12951779Y-12427354D01*
X12951779Y-12427354D02*
X12951779Y-12389259D01*
X12951779Y-12389259D02*
X12961303Y-12341639D01*
X12961303Y-12341639D02*
X12970826Y-12313068D01*
X12970826Y-12313068D02*
X12980350Y-12294020D01*
X12980350Y-12294020D02*
X12999398Y-12265449D01*
X12999398Y-12265449D02*
X13008922Y-12255925D01*
X13170826Y-12351163D02*
X13170826Y-12484497D01*
X13123207Y-12274973D02*
X13075588Y-12417830D01*
X13075588Y-12417830D02*
X13199398Y-12417830D01*
X13427969Y-12484497D02*
X13427969Y-12284497D01*
X13513684Y-12484497D02*
X13513684Y-12379735D01*
X13513684Y-12379735D02*
X13504160Y-12360687D01*
X13504160Y-12360687D02*
X13485112Y-12351163D01*
X13485112Y-12351163D02*
X13456541Y-12351163D01*
X13456541Y-12351163D02*
X13437493Y-12360687D01*
X13437493Y-12360687D02*
X13427969Y-12370211D01*
X13637493Y-12484497D02*
X13618445Y-12474973D01*
X13618445Y-12474973D02*
X13608922Y-12465449D01*
X13608922Y-12465449D02*
X13599398Y-12446401D01*
X13599398Y-12446401D02*
X13599398Y-12389259D01*
X13599398Y-12389259D02*
X13608922Y-12370211D01*
X13608922Y-12370211D02*
X13618445Y-12360687D01*
X13618445Y-12360687D02*
X13637493Y-12351163D01*
X13637493Y-12351163D02*
X13666065Y-12351163D01*
X13666065Y-12351163D02*
X13685112Y-12360687D01*
X13685112Y-12360687D02*
X13694636Y-12370211D01*
X13694636Y-12370211D02*
X13704160Y-12389259D01*
X13704160Y-12389259D02*
X13704160Y-12446401D01*
X13704160Y-12446401D02*
X13694636Y-12465449D01*
X13694636Y-12465449D02*
X13685112Y-12474973D01*
X13685112Y-12474973D02*
X13666065Y-12484497D01*
X13666065Y-12484497D02*
X13637493Y-12484497D01*
X13818445Y-12484497D02*
X13799398Y-12474973D01*
X13799398Y-12474973D02*
X13789874Y-12455925D01*
X13789874Y-12455925D02*
X13789874Y-12284497D01*
X13970826Y-12474973D02*
X13951779Y-12484497D01*
X13951779Y-12484497D02*
X13913684Y-12484497D01*
X13913684Y-12484497D02*
X13894636Y-12474973D01*
X13894636Y-12474973D02*
X13885112Y-12455925D01*
X13885112Y-12455925D02*
X13885112Y-12379735D01*
X13885112Y-12379735D02*
X13894636Y-12360687D01*
X13894636Y-12360687D02*
X13913684Y-12351163D01*
X13913684Y-12351163D02*
X13951779Y-12351163D01*
X13951779Y-12351163D02*
X13970826Y-12360687D01*
X13970826Y-12360687D02*
X13980350Y-12379735D01*
X13980350Y-12379735D02*
X13980350Y-12398782D01*
X13980350Y-12398782D02*
X13885112Y-12417830D01*
X14056541Y-12474973D02*
X14075588Y-12484497D01*
X14075588Y-12484497D02*
X14113684Y-12484497D01*
X14113684Y-12484497D02*
X14132731Y-12474973D01*
X14132731Y-12474973D02*
X14142255Y-12455925D01*
X14142255Y-12455925D02*
X14142255Y-12446401D01*
X14142255Y-12446401D02*
X14132731Y-12427354D01*
X14132731Y-12427354D02*
X14113684Y-12417830D01*
X14113684Y-12417830D02*
X14085112Y-12417830D01*
X14085112Y-12417830D02*
X14066065Y-12408306D01*
X14066065Y-12408306D02*
X14056541Y-12389259D01*
X14056541Y-12389259D02*
X14056541Y-12379735D01*
X14056541Y-12379735D02*
X14066065Y-12360687D01*
X14066065Y-12360687D02*
X14085112Y-12351163D01*
X14085112Y-12351163D02*
X14113684Y-12351163D01*
X14113684Y-12351163D02*
X14132731Y-12360687D01*
X14208922Y-12560687D02*
X14218446Y-12551163D01*
X14218446Y-12551163D02*
X14237493Y-12522592D01*
X14237493Y-12522592D02*
X14247017Y-12503544D01*
X14247017Y-12503544D02*
X14256541Y-12474973D01*
X14256541Y-12474973D02*
X14266065Y-12427354D01*
X14266065Y-12427354D02*
X14266065Y-12389259D01*
X14266065Y-12389259D02*
X14256541Y-12341639D01*
X14256541Y-12341639D02*
X14247017Y-12313068D01*
X14247017Y-12313068D02*
X14237493Y-12294020D01*
X14237493Y-12294020D02*
X14218446Y-12265449D01*
X14218446Y-12265449D02*
X14208922Y-12255925D01*
D12*
X9433859Y-12657013D02*
G75*
G02*
X9343859Y-12657013I-45000J0D01*
G01*
X9343859Y-12657013D02*
G75*
G02*
X9433859Y-12657013I45000J0D01*
G01*
D11*
X9732731Y-12548497D02*
X9751779Y-12548497D01*
X9751779Y-12548497D02*
X9770826Y-12558020D01*
X9770826Y-12558020D02*
X9780350Y-12567544D01*
X9780350Y-12567544D02*
X9789874Y-12586592D01*
X9789874Y-12586592D02*
X9799398Y-12624687D01*
X9799398Y-12624687D02*
X9799398Y-12672306D01*
X9799398Y-12672306D02*
X9789874Y-12710401D01*
X9789874Y-12710401D02*
X9780350Y-12729449D01*
X9780350Y-12729449D02*
X9770826Y-12738973D01*
X9770826Y-12738973D02*
X9751779Y-12748497D01*
X9751779Y-12748497D02*
X9732731Y-12748497D01*
X9732731Y-12748497D02*
X9713683Y-12738973D01*
X9713683Y-12738973D02*
X9704159Y-12729449D01*
X9704159Y-12729449D02*
X9694636Y-12710401D01*
X9694636Y-12710401D02*
X9685112Y-12672306D01*
X9685112Y-12672306D02*
X9685112Y-12624687D01*
X9685112Y-12624687D02*
X9694636Y-12586592D01*
X9694636Y-12586592D02*
X9704159Y-12567544D01*
X9704159Y-12567544D02*
X9713683Y-12558020D01*
X9713683Y-12558020D02*
X9732731Y-12548497D01*
X9885112Y-12729449D02*
X9894636Y-12738973D01*
X9894636Y-12738973D02*
X9885112Y-12748497D01*
X9885112Y-12748497D02*
X9875588Y-12738973D01*
X9875588Y-12738973D02*
X9885112Y-12729449D01*
X9885112Y-12729449D02*
X9885112Y-12748497D01*
X9989874Y-12748497D02*
X10027969Y-12748497D01*
X10027969Y-12748497D02*
X10047017Y-12738973D01*
X10047017Y-12738973D02*
X10056540Y-12729449D01*
X10056540Y-12729449D02*
X10075588Y-12700878D01*
X10075588Y-12700878D02*
X10085112Y-12662782D01*
X10085112Y-12662782D02*
X10085112Y-12586592D01*
X10085112Y-12586592D02*
X10075588Y-12567544D01*
X10075588Y-12567544D02*
X10066064Y-12558020D01*
X10066064Y-12558020D02*
X10047017Y-12548497D01*
X10047017Y-12548497D02*
X10008921Y-12548497D01*
X10008921Y-12548497D02*
X9989874Y-12558020D01*
X9989874Y-12558020D02*
X9980350Y-12567544D01*
X9980350Y-12567544D02*
X9970826Y-12586592D01*
X9970826Y-12586592D02*
X9970826Y-12634211D01*
X9970826Y-12634211D02*
X9980350Y-12653259D01*
X9980350Y-12653259D02*
X9989874Y-12662782D01*
X9989874Y-12662782D02*
X10008921Y-12672306D01*
X10008921Y-12672306D02*
X10047017Y-12672306D01*
X10047017Y-12672306D02*
X10066064Y-12662782D01*
X10066064Y-12662782D02*
X10075588Y-12653259D01*
X10075588Y-12653259D02*
X10085112Y-12634211D01*
X10208921Y-12548497D02*
X10227969Y-12548497D01*
X10227969Y-12548497D02*
X10247017Y-12558020D01*
X10247017Y-12558020D02*
X10256540Y-12567544D01*
X10256540Y-12567544D02*
X10266064Y-12586592D01*
X10266064Y-12586592D02*
X10275588Y-12624687D01*
X10275588Y-12624687D02*
X10275588Y-12672306D01*
X10275588Y-12672306D02*
X10266064Y-12710401D01*
X10266064Y-12710401D02*
X10256540Y-12729449D01*
X10256540Y-12729449D02*
X10247017Y-12738973D01*
X10247017Y-12738973D02*
X10227969Y-12748497D01*
X10227969Y-12748497D02*
X10208921Y-12748497D01*
X10208921Y-12748497D02*
X10189874Y-12738973D01*
X10189874Y-12738973D02*
X10180350Y-12729449D01*
X10180350Y-12729449D02*
X10170826Y-12710401D01*
X10170826Y-12710401D02*
X10161302Y-12672306D01*
X10161302Y-12672306D02*
X10161302Y-12624687D01*
X10161302Y-12624687D02*
X10170826Y-12586592D01*
X10170826Y-12586592D02*
X10180350Y-12567544D01*
X10180350Y-12567544D02*
X10189874Y-12558020D01*
X10189874Y-12558020D02*
X10208921Y-12548497D01*
X10399398Y-12548497D02*
X10418445Y-12548497D01*
X10418445Y-12548497D02*
X10437493Y-12558020D01*
X10437493Y-12558020D02*
X10447017Y-12567544D01*
X10447017Y-12567544D02*
X10456540Y-12586592D01*
X10456540Y-12586592D02*
X10466064Y-12624687D01*
X10466064Y-12624687D02*
X10466064Y-12672306D01*
X10466064Y-12672306D02*
X10456540Y-12710401D01*
X10456540Y-12710401D02*
X10447017Y-12729449D01*
X10447017Y-12729449D02*
X10437493Y-12738973D01*
X10437493Y-12738973D02*
X10418445Y-12748497D01*
X10418445Y-12748497D02*
X10399398Y-12748497D01*
X10399398Y-12748497D02*
X10380350Y-12738973D01*
X10380350Y-12738973D02*
X10370826Y-12729449D01*
X10370826Y-12729449D02*
X10361302Y-12710401D01*
X10361302Y-12710401D02*
X10351779Y-12672306D01*
X10351779Y-12672306D02*
X10351779Y-12624687D01*
X10351779Y-12624687D02*
X10361302Y-12586592D01*
X10361302Y-12586592D02*
X10370826Y-12567544D01*
X10370826Y-12567544D02*
X10380350Y-12558020D01*
X10380350Y-12558020D02*
X10399398Y-12548497D01*
X10551779Y-12748497D02*
X10551779Y-12615163D01*
X10551779Y-12634211D02*
X10561302Y-12624687D01*
X10561302Y-12624687D02*
X10580350Y-12615163D01*
X10580350Y-12615163D02*
X10608921Y-12615163D01*
X10608921Y-12615163D02*
X10627969Y-12624687D01*
X10627969Y-12624687D02*
X10637493Y-12643735D01*
X10637493Y-12643735D02*
X10637493Y-12748497D01*
X10637493Y-12643735D02*
X10647017Y-12624687D01*
X10647017Y-12624687D02*
X10666064Y-12615163D01*
X10666064Y-12615163D02*
X10694636Y-12615163D01*
X10694636Y-12615163D02*
X10713683Y-12624687D01*
X10713683Y-12624687D02*
X10723207Y-12643735D01*
X10723207Y-12643735D02*
X10723207Y-12748497D01*
X10818445Y-12748497D02*
X10818445Y-12615163D01*
X10818445Y-12634211D02*
X10827969Y-12624687D01*
X10827969Y-12624687D02*
X10847017Y-12615163D01*
X10847017Y-12615163D02*
X10875588Y-12615163D01*
X10875588Y-12615163D02*
X10894636Y-12624687D01*
X10894636Y-12624687D02*
X10904160Y-12643735D01*
X10904160Y-12643735D02*
X10904160Y-12748497D01*
X10904160Y-12643735D02*
X10913683Y-12624687D01*
X10913683Y-12624687D02*
X10932731Y-12615163D01*
X10932731Y-12615163D02*
X10961302Y-12615163D01*
X10961302Y-12615163D02*
X10980350Y-12624687D01*
X10980350Y-12624687D02*
X10989874Y-12643735D01*
X10989874Y-12643735D02*
X10989874Y-12748497D01*
X11380350Y-12538973D02*
X11208921Y-12796116D01*
X11637493Y-12548497D02*
X11656541Y-12548497D01*
X11656541Y-12548497D02*
X11675588Y-12558020D01*
X11675588Y-12558020D02*
X11685112Y-12567544D01*
X11685112Y-12567544D02*
X11694636Y-12586592D01*
X11694636Y-12586592D02*
X11704160Y-12624687D01*
X11704160Y-12624687D02*
X11704160Y-12672306D01*
X11704160Y-12672306D02*
X11694636Y-12710401D01*
X11694636Y-12710401D02*
X11685112Y-12729449D01*
X11685112Y-12729449D02*
X11675588Y-12738973D01*
X11675588Y-12738973D02*
X11656541Y-12748497D01*
X11656541Y-12748497D02*
X11637493Y-12748497D01*
X11637493Y-12748497D02*
X11618445Y-12738973D01*
X11618445Y-12738973D02*
X11608921Y-12729449D01*
X11608921Y-12729449D02*
X11599398Y-12710401D01*
X11599398Y-12710401D02*
X11589874Y-12672306D01*
X11589874Y-12672306D02*
X11589874Y-12624687D01*
X11589874Y-12624687D02*
X11599398Y-12586592D01*
X11599398Y-12586592D02*
X11608921Y-12567544D01*
X11608921Y-12567544D02*
X11618445Y-12558020D01*
X11618445Y-12558020D02*
X11637493Y-12548497D01*
X11789874Y-12729449D02*
X11799398Y-12738973D01*
X11799398Y-12738973D02*
X11789874Y-12748497D01*
X11789874Y-12748497D02*
X11780350Y-12738973D01*
X11780350Y-12738973D02*
X11789874Y-12729449D01*
X11789874Y-12729449D02*
X11789874Y-12748497D01*
X11923207Y-12548497D02*
X11942255Y-12548497D01*
X11942255Y-12548497D02*
X11961302Y-12558020D01*
X11961302Y-12558020D02*
X11970826Y-12567544D01*
X11970826Y-12567544D02*
X11980350Y-12586592D01*
X11980350Y-12586592D02*
X11989874Y-12624687D01*
X11989874Y-12624687D02*
X11989874Y-12672306D01*
X11989874Y-12672306D02*
X11980350Y-12710401D01*
X11980350Y-12710401D02*
X11970826Y-12729449D01*
X11970826Y-12729449D02*
X11961302Y-12738973D01*
X11961302Y-12738973D02*
X11942255Y-12748497D01*
X11942255Y-12748497D02*
X11923207Y-12748497D01*
X11923207Y-12748497D02*
X11904160Y-12738973D01*
X11904160Y-12738973D02*
X11894636Y-12729449D01*
X11894636Y-12729449D02*
X11885112Y-12710401D01*
X11885112Y-12710401D02*
X11875588Y-12672306D01*
X11875588Y-12672306D02*
X11875588Y-12624687D01*
X11875588Y-12624687D02*
X11885112Y-12586592D01*
X11885112Y-12586592D02*
X11894636Y-12567544D01*
X11894636Y-12567544D02*
X11904160Y-12558020D01*
X11904160Y-12558020D02*
X11923207Y-12548497D01*
X12056541Y-12548497D02*
X12180350Y-12548497D01*
X12180350Y-12548497D02*
X12113683Y-12624687D01*
X12113683Y-12624687D02*
X12142255Y-12624687D01*
X12142255Y-12624687D02*
X12161302Y-12634211D01*
X12161302Y-12634211D02*
X12170826Y-12643735D01*
X12170826Y-12643735D02*
X12180350Y-12662782D01*
X12180350Y-12662782D02*
X12180350Y-12710401D01*
X12180350Y-12710401D02*
X12170826Y-12729449D01*
X12170826Y-12729449D02*
X12161302Y-12738973D01*
X12161302Y-12738973D02*
X12142255Y-12748497D01*
X12142255Y-12748497D02*
X12085112Y-12748497D01*
X12085112Y-12748497D02*
X12066064Y-12738973D01*
X12066064Y-12738973D02*
X12056541Y-12729449D01*
X12361302Y-12548497D02*
X12266064Y-12548497D01*
X12266064Y-12548497D02*
X12256541Y-12643735D01*
X12256541Y-12643735D02*
X12266064Y-12634211D01*
X12266064Y-12634211D02*
X12285112Y-12624687D01*
X12285112Y-12624687D02*
X12332731Y-12624687D01*
X12332731Y-12624687D02*
X12351779Y-12634211D01*
X12351779Y-12634211D02*
X12361302Y-12643735D01*
X12361302Y-12643735D02*
X12370826Y-12662782D01*
X12370826Y-12662782D02*
X12370826Y-12710401D01*
X12370826Y-12710401D02*
X12361302Y-12729449D01*
X12361302Y-12729449D02*
X12351779Y-12738973D01*
X12351779Y-12738973D02*
X12332731Y-12748497D01*
X12332731Y-12748497D02*
X12285112Y-12748497D01*
X12285112Y-12748497D02*
X12266064Y-12738973D01*
X12266064Y-12738973D02*
X12256541Y-12729449D01*
X12542255Y-12615163D02*
X12542255Y-12748497D01*
X12494636Y-12538973D02*
X12447017Y-12681830D01*
X12447017Y-12681830D02*
X12570826Y-12681830D01*
X12637493Y-12548497D02*
X12637493Y-12586592D01*
X12713683Y-12548497D02*
X12713683Y-12586592D01*
X13008922Y-12824687D02*
X12999398Y-12815163D01*
X12999398Y-12815163D02*
X12980350Y-12786592D01*
X12980350Y-12786592D02*
X12970826Y-12767544D01*
X12970826Y-12767544D02*
X12961303Y-12738973D01*
X12961303Y-12738973D02*
X12951779Y-12691354D01*
X12951779Y-12691354D02*
X12951779Y-12653259D01*
X12951779Y-12653259D02*
X12961303Y-12605639D01*
X12961303Y-12605639D02*
X12970826Y-12577068D01*
X12970826Y-12577068D02*
X12980350Y-12558020D01*
X12980350Y-12558020D02*
X12999398Y-12529449D01*
X12999398Y-12529449D02*
X13008922Y-12519925D01*
X13170826Y-12615163D02*
X13170826Y-12748497D01*
X13123207Y-12538973D02*
X13075588Y-12681830D01*
X13075588Y-12681830D02*
X13199398Y-12681830D01*
X13427969Y-12748497D02*
X13427969Y-12548497D01*
X13513684Y-12748497D02*
X13513684Y-12643735D01*
X13513684Y-12643735D02*
X13504160Y-12624687D01*
X13504160Y-12624687D02*
X13485112Y-12615163D01*
X13485112Y-12615163D02*
X13456541Y-12615163D01*
X13456541Y-12615163D02*
X13437493Y-12624687D01*
X13437493Y-12624687D02*
X13427969Y-12634211D01*
X13637493Y-12748497D02*
X13618445Y-12738973D01*
X13618445Y-12738973D02*
X13608922Y-12729449D01*
X13608922Y-12729449D02*
X13599398Y-12710401D01*
X13599398Y-12710401D02*
X13599398Y-12653259D01*
X13599398Y-12653259D02*
X13608922Y-12634211D01*
X13608922Y-12634211D02*
X13618445Y-12624687D01*
X13618445Y-12624687D02*
X13637493Y-12615163D01*
X13637493Y-12615163D02*
X13666065Y-12615163D01*
X13666065Y-12615163D02*
X13685112Y-12624687D01*
X13685112Y-12624687D02*
X13694636Y-12634211D01*
X13694636Y-12634211D02*
X13704160Y-12653259D01*
X13704160Y-12653259D02*
X13704160Y-12710401D01*
X13704160Y-12710401D02*
X13694636Y-12729449D01*
X13694636Y-12729449D02*
X13685112Y-12738973D01*
X13685112Y-12738973D02*
X13666065Y-12748497D01*
X13666065Y-12748497D02*
X13637493Y-12748497D01*
X13818445Y-12748497D02*
X13799398Y-12738973D01*
X13799398Y-12738973D02*
X13789874Y-12719925D01*
X13789874Y-12719925D02*
X13789874Y-12548497D01*
X13970826Y-12738973D02*
X13951779Y-12748497D01*
X13951779Y-12748497D02*
X13913684Y-12748497D01*
X13913684Y-12748497D02*
X13894636Y-12738973D01*
X13894636Y-12738973D02*
X13885112Y-12719925D01*
X13885112Y-12719925D02*
X13885112Y-12643735D01*
X13885112Y-12643735D02*
X13894636Y-12624687D01*
X13894636Y-12624687D02*
X13913684Y-12615163D01*
X13913684Y-12615163D02*
X13951779Y-12615163D01*
X13951779Y-12615163D02*
X13970826Y-12624687D01*
X13970826Y-12624687D02*
X13980350Y-12643735D01*
X13980350Y-12643735D02*
X13980350Y-12662782D01*
X13980350Y-12662782D02*
X13885112Y-12681830D01*
X14056541Y-12738973D02*
X14075588Y-12748497D01*
X14075588Y-12748497D02*
X14113684Y-12748497D01*
X14113684Y-12748497D02*
X14132731Y-12738973D01*
X14132731Y-12738973D02*
X14142255Y-12719925D01*
X14142255Y-12719925D02*
X14142255Y-12710401D01*
X14142255Y-12710401D02*
X14132731Y-12691354D01*
X14132731Y-12691354D02*
X14113684Y-12681830D01*
X14113684Y-12681830D02*
X14085112Y-12681830D01*
X14085112Y-12681830D02*
X14066065Y-12672306D01*
X14066065Y-12672306D02*
X14056541Y-12653259D01*
X14056541Y-12653259D02*
X14056541Y-12643735D01*
X14056541Y-12643735D02*
X14066065Y-12624687D01*
X14066065Y-12624687D02*
X14085112Y-12615163D01*
X14085112Y-12615163D02*
X14113684Y-12615163D01*
X14113684Y-12615163D02*
X14132731Y-12624687D01*
X14208922Y-12824687D02*
X14218446Y-12815163D01*
X14218446Y-12815163D02*
X14237493Y-12786592D01*
X14237493Y-12786592D02*
X14247017Y-12767544D01*
X14247017Y-12767544D02*
X14256541Y-12738973D01*
X14256541Y-12738973D02*
X14266065Y-12691354D01*
X14266065Y-12691354D02*
X14266065Y-12653259D01*
X14266065Y-12653259D02*
X14256541Y-12605639D01*
X14256541Y-12605639D02*
X14247017Y-12577068D01*
X14247017Y-12577068D02*
X14237493Y-12558020D01*
X14237493Y-12558020D02*
X14218446Y-12529449D01*
X14218446Y-12529449D02*
X14208922Y-12519925D01*
M02*
