%TF.GenerationSoftware,KiCad,Pcbnew,10.0.0*%
%TF.CreationDate,2026-04-08T20:09:22-04:00*%
%TF.ProjectId,new,6e65772e-6b69-4636-9164-5f7063625858,rev?*%
%TF.SameCoordinates,Original*%
%TF.FileFunction,Drillmap*%
%TF.FilePolarity,Positive*%
%FSLAX45Y45*%
G04 Gerber Fmt 4.5, Leading zero omitted, Abs format (unit mm)*
G04 Created by KiCad (PCBNEW 10.0.0) date 2026-04-08 20:09:22*
%MOMM*%
%LPD*%
G01*
G04 APERTURE LIST*
%ADD10C,0.050000*%
%ADD11C,0.200000*%
G04 APERTURE END LIST*
D10*
X14811424Y-7996136D02*
X14865747Y-11670237D01*
X9436359Y-11750513D01*
X9470945Y-7966954D01*
X14811424Y-7996136D01*
D11*
X9694636Y-12064497D02*
X9694636Y-11864497D01*
X9694636Y-11864497D02*
X9742255Y-11864497D01*
X9742255Y-11864497D02*
X9770826Y-11874020D01*
X9770826Y-11874020D02*
X9789874Y-11893068D01*
X9789874Y-11893068D02*
X9799398Y-11912116D01*
X9799398Y-11912116D02*
X9808921Y-11950211D01*
X9808921Y-11950211D02*
X9808921Y-11978782D01*
X9808921Y-11978782D02*
X9799398Y-12016878D01*
X9799398Y-12016878D02*
X9789874Y-12035925D01*
X9789874Y-12035925D02*
X9770826Y-12054973D01*
X9770826Y-12054973D02*
X9742255Y-12064497D01*
X9742255Y-12064497D02*
X9694636Y-12064497D01*
X9894636Y-12064497D02*
X9894636Y-11931163D01*
X9894636Y-11969259D02*
X9904159Y-11950211D01*
X9904159Y-11950211D02*
X9913683Y-11940687D01*
X9913683Y-11940687D02*
X9932731Y-11931163D01*
X9932731Y-11931163D02*
X9951779Y-11931163D01*
X10018445Y-12064497D02*
X10018445Y-11931163D01*
X10018445Y-11864497D02*
X10008921Y-11874020D01*
X10008921Y-11874020D02*
X10018445Y-11883544D01*
X10018445Y-11883544D02*
X10027969Y-11874020D01*
X10027969Y-11874020D02*
X10018445Y-11864497D01*
X10018445Y-11864497D02*
X10018445Y-11883544D01*
X10142255Y-12064497D02*
X10123207Y-12054973D01*
X10123207Y-12054973D02*
X10113683Y-12035925D01*
X10113683Y-12035925D02*
X10113683Y-11864497D01*
X10247017Y-12064497D02*
X10227969Y-12054973D01*
X10227969Y-12054973D02*
X10218445Y-12035925D01*
X10218445Y-12035925D02*
X10218445Y-11864497D01*
X10475588Y-12064497D02*
X10475588Y-11864497D01*
X10475588Y-11864497D02*
X10542255Y-12007354D01*
X10542255Y-12007354D02*
X10608921Y-11864497D01*
X10608921Y-11864497D02*
X10608921Y-12064497D01*
X10789874Y-12064497D02*
X10789874Y-11959735D01*
X10789874Y-11959735D02*
X10780350Y-11940687D01*
X10780350Y-11940687D02*
X10761302Y-11931163D01*
X10761302Y-11931163D02*
X10723207Y-11931163D01*
X10723207Y-11931163D02*
X10704159Y-11940687D01*
X10789874Y-12054973D02*
X10770826Y-12064497D01*
X10770826Y-12064497D02*
X10723207Y-12064497D01*
X10723207Y-12064497D02*
X10704159Y-12054973D01*
X10704159Y-12054973D02*
X10694636Y-12035925D01*
X10694636Y-12035925D02*
X10694636Y-12016878D01*
X10694636Y-12016878D02*
X10704159Y-11997830D01*
X10704159Y-11997830D02*
X10723207Y-11988306D01*
X10723207Y-11988306D02*
X10770826Y-11988306D01*
X10770826Y-11988306D02*
X10789874Y-11978782D01*
X10885112Y-11931163D02*
X10885112Y-12131163D01*
X10885112Y-11940687D02*
X10904159Y-11931163D01*
X10904159Y-11931163D02*
X10942255Y-11931163D01*
X10942255Y-11931163D02*
X10961302Y-11940687D01*
X10961302Y-11940687D02*
X10970826Y-11950211D01*
X10970826Y-11950211D02*
X10980350Y-11969259D01*
X10980350Y-11969259D02*
X10980350Y-12026401D01*
X10980350Y-12026401D02*
X10970826Y-12045449D01*
X10970826Y-12045449D02*
X10961302Y-12054973D01*
X10961302Y-12054973D02*
X10942255Y-12064497D01*
X10942255Y-12064497D02*
X10904159Y-12064497D01*
X10904159Y-12064497D02*
X10885112Y-12054973D01*
X11066064Y-12045449D02*
X11075588Y-12054973D01*
X11075588Y-12054973D02*
X11066064Y-12064497D01*
X11066064Y-12064497D02*
X11056540Y-12054973D01*
X11056540Y-12054973D02*
X11066064Y-12045449D01*
X11066064Y-12045449D02*
X11066064Y-12064497D01*
X11066064Y-11940687D02*
X11075588Y-11950211D01*
X11075588Y-11950211D02*
X11066064Y-11959735D01*
X11066064Y-11959735D02*
X11056540Y-11950211D01*
X11056540Y-11950211D02*
X11066064Y-11940687D01*
X11066064Y-11940687D02*
X11066064Y-11959735D01*
M02*
