G04 #@! TF.GenerationSoftware,KiCad,Pcbnew,10.0.0*
G04 #@! TF.CreationDate,2026-04-08T20:09:22-04:00*
G04 #@! TF.ProjectId,new,6e65772e-6b69-4636-9164-5f7063625858,rev?*
G04 #@! TF.SameCoordinates,Original*
G04 #@! TF.FileFunction,Copper,L1,Top*
G04 #@! TF.FilePolarity,Positive*
%FSLAX46Y46*%
G04 Gerber Fmt 4.6, Leading zero omitted, Abs format (unit mm)*
G04 Created by KiCad (PCBNEW 10.0.0) date 2026-04-08 20:09:22*
%MOMM*%
%LPD*%
G01*
G04 APERTURE LIST*
G04 #@! TA.AperFunction,ComponentPad*
%ADD10C,1.600000*%
G04 #@! TD*
G04 #@! TA.AperFunction,ComponentPad*
%ADD11R,1.800000X1.800000*%
G04 #@! TD*
G04 #@! TA.AperFunction,ComponentPad*
%ADD12C,1.800000*%
G04 #@! TD*
G04 #@! TA.AperFunction,SMDPad,CuDef*
%ADD13R,1.270000X5.080000*%
G04 #@! TD*
G04 #@! TA.AperFunction,SMDPad,CuDef*
%ADD14C,17.800000*%
G04 #@! TD*
G04 #@! TA.AperFunction,Conductor*
%ADD15C,0.200000*%
G04 #@! TD*
G04 APERTURE END LIST*
D10*
G04 #@! TO.P,R2,1*
G04 #@! TO.N,Net-(D3-K)*
X129620000Y-108000000D03*
G04 #@! TO.P,R2,2*
G04 #@! TO.N,Net-(BT1--)*
X122000000Y-108000000D03*
G04 #@! TD*
G04 #@! TO.P,R1,1*
G04 #@! TO.N,Net-(D2-K)*
X112000000Y-108000000D03*
G04 #@! TO.P,R1,2*
G04 #@! TO.N,Net-(BT1--)*
X119620000Y-108000000D03*
G04 #@! TD*
D11*
G04 #@! TO.P,D3,1,K_1*
G04 #@! TO.N,Net-(D3-K)*
X135500000Y-100460000D03*
D12*
G04 #@! TO.P,D3,2,A_2*
G04 #@! TO.N,Net-(BT1-+)*
X135500000Y-103000000D03*
G04 #@! TD*
D13*
G04 #@! TO.P,BT1,1,+_1*
G04 #@! TO.N,Net-(BT1-+)*
X107910000Y-94023075D03*
X129880000Y-94023075D03*
D14*
G04 #@! TO.P,BT1,2,-_2*
G04 #@! TO.N,Net-(BT1--)*
X118895000Y-94023075D03*
G04 #@! TD*
D11*
G04 #@! TO.P,D2,1,K_1*
G04 #@! TO.N,Net-(D2-K)*
X104500000Y-103275000D03*
D12*
G04 #@! TO.P,D2,2,A_2*
G04 #@! TO.N,Net-(BT1-+)*
X104500000Y-100735000D03*
G04 #@! TD*
G04 #@! TO.N,Net-(BT1-+)*
D15*
X135500000Y-103000000D02*
X136700000Y-101800000D01*
X107910000Y-94023075D02*
X107910000Y-91997310D01*
X107910000Y-97325000D02*
X107910000Y-94023075D01*
X122705765Y-84823075D02*
X129880000Y-91997310D01*
X115084235Y-84823075D02*
X122705765Y-84823075D01*
X129880000Y-91997310D02*
X129880000Y-94023075D01*
X136700000Y-99260000D02*
X131463075Y-94023075D01*
X136700000Y-101800000D02*
X136700000Y-99260000D01*
X104500000Y-100735000D02*
X107910000Y-97325000D01*
X131463075Y-94023075D02*
X129880000Y-94023075D01*
X107910000Y-91997310D02*
X115084235Y-84823075D01*
G04 #@! TO.N,Net-(BT1--)*
X119620000Y-108000000D02*
X119620000Y-94748075D01*
X122000000Y-108000000D02*
X122000000Y-97128075D01*
X119620000Y-94748075D02*
X118895000Y-94023075D01*
X122000000Y-97128075D02*
X118895000Y-94023075D01*
G04 #@! TO.N,Net-(D2-K)*
X104500000Y-103275000D02*
X107275000Y-103275000D01*
X107275000Y-103275000D02*
X112000000Y-108000000D01*
G04 #@! TO.N,Net-(D3-K)*
X129620000Y-106340000D02*
X135500000Y-100460000D01*
X129620000Y-108000000D02*
X129620000Y-106340000D01*
G04 #@! TD*
M02*
